<svg width="289" height="253" viewBox="0 0 289 253" fill="none" xmlns="http://www.w3.org/2000/svg">
<path d="M256.109 118.69L252.434 136.488L250.069 134.181L246.045 137.053L242.969 133.232L236.072 138.247L230.178 128.39L223.604 132.241L220.996 128.647L212.648 133.351L210.137 127.971L215.989 99.6283L247.362 106.106L256.109 118.69Z" fill="#32393E"/>
<path d="M247.362 106.106L256.109 118.69L245.227 116.444L247.362 106.106Z" fill="#49535A"/>
<path d="M251.651 140.044L246.263 166.156L204.004 157.432L209.353 131.531L211.864 136.907L220.216 132.203L222.82 135.797L229.398 131.95L235.288 141.807L242.189 136.792L245.261 140.609L249.289 137.74L251.651 140.044Z" fill="#32393E"/>
<path d="M215.167 88.9838L172.101 91.6488L168.68 36.3682L200.659 34.3867L212.398 44.2363L215.167 88.9838Z" fill="#32393E"/>
<path d="M200.659 34.3867L212.398 44.2363L201.308 44.9237L200.659 34.3867Z" fill="#49535A"/>
<path d="M188.736 71.5848L188.567 70.3368C188.133 67.7525 188.84 64.861 191.086 61.8389C193.114 59.1509 194.212 57.2309 194.089 55.0497C193.951 52.5922 192.319 51.0408 189.281 51.1637C187.545 51.2538 185.878 51.8699 184.501 52.9301L183.176 49.9618C184.712 48.7138 187.4 47.7922 189.953 47.6578C195.495 47.3506 198.19 50.6299 198.401 54.2894C198.586 57.5649 196.888 60.0264 194.73 62.9026C192.749 65.5253 192.1 67.6872 192.38 70.1333L192.499 71.3851L188.736 71.5848ZM188.053 78.3854C187.953 76.6037 189.086 75.2827 190.771 75.1906C192.457 75.0984 193.686 76.2811 193.786 78.0667C193.878 79.7525 192.845 81.1118 191.063 81.2117C189.362 81.3077 188.133 80.0712 188.037 78.3854H188.053Z" fill="#49535A"/>
<path d="M57.0162 110.181L52.6847 108.218L52.0818 109.543C51.9928 109.733 51.8539 109.894 51.6801 110.01C51.5062 110.127 51.3039 110.194 51.095 110.204C50.8569 110.211 50.6196 110.235 50.3846 110.273C50.1782 110.303 49.9674 110.277 49.7747 110.198C49.5819 110.118 49.4145 109.987 49.2902 109.82L48.4415 108.633L44.5746 111.406L45.4233 112.592C45.5413 112.763 45.6108 112.963 45.6243 113.171C45.6378 113.379 45.5949 113.586 45.5001 113.771C45.3906 113.982 45.2919 114.199 45.2044 114.42C45.1283 114.615 45.0005 114.786 44.8348 114.914C44.669 115.041 44.4716 115.122 44.2636 115.146L42.8159 115.288L43.2806 120.023L44.7359 119.877C44.9446 119.86 45.1539 119.9 45.3414 119.994C45.5288 120.087 45.6872 120.23 45.7996 120.407C45.861 120.506 45.9263 120.602 45.9954 120.698C46.0646 120.794 46.1337 120.887 46.2066 120.979C46.3391 121.14 46.4244 121.335 46.4528 121.542C46.4813 121.748 46.4519 121.959 46.3679 122.15L45.7612 123.486L50.0966 125.452L50.6994 124.12C50.7893 123.931 50.929 123.77 51.1036 123.654C51.2781 123.538 51.4809 123.472 51.6902 123.463C51.9255 123.453 52.1601 123.43 52.3929 123.394C52.5992 123.363 52.81 123.389 53.0028 123.469C53.1955 123.549 53.363 123.68 53.4873 123.847L54.3359 125.034L58.2066 122.261L57.358 121.075C57.2363 120.905 57.1646 120.705 57.1511 120.496C57.1375 120.288 57.1826 120.08 57.2812 119.896C57.3882 119.686 57.4843 119.471 57.5692 119.251C57.643 119.054 57.7702 118.882 57.9364 118.754C58.1026 118.626 58.3012 118.547 58.51 118.525L59.9654 118.379L59.4969 113.644L58.0415 113.786C57.8341 113.805 57.6257 113.765 57.4393 113.672C57.253 113.579 57.0959 113.437 56.9855 113.26C56.9202 113.16 56.855 113.064 56.7858 112.968C56.7167 112.872 56.6476 112.776 56.5746 112.688C56.443 112.525 56.3584 112.329 56.33 112.121C56.3016 111.913 56.3304 111.702 56.4134 111.509L57.0162 110.181ZM54.5586 114.562C55.0077 115.189 55.2608 115.934 55.286 116.705C55.3112 117.475 55.1073 118.236 54.7002 118.891C54.2931 119.545 53.7009 120.065 52.9987 120.383C52.2964 120.701 51.5156 120.803 50.755 120.678C49.9944 120.552 49.2882 120.204 48.7256 119.677C48.163 119.149 47.7694 118.467 47.5945 117.717C47.4196 116.966 47.4713 116.18 47.7431 115.458C48.0148 114.737 48.4944 114.112 49.1212 113.664C49.9615 113.062 51.0063 112.818 52.026 112.987C53.0456 113.155 53.9566 113.722 54.5586 114.562Z" fill="#32393E"/>
<path d="M252.818 173.003L249.93 174.67L250.441 175.553C250.517 175.68 250.555 175.826 250.551 175.973C250.546 176.121 250.499 176.265 250.414 176.386C250.326 176.524 250.242 176.666 250.165 176.816C250.102 176.949 250.002 177.06 249.877 177.138C249.753 177.215 249.609 177.256 249.462 177.254H248.448V180.591H249.47C249.616 180.589 249.761 180.629 249.885 180.707C250.01 180.785 250.109 180.896 250.172 181.029C250.249 181.178 250.334 181.32 250.422 181.459C250.506 181.58 250.554 181.724 250.558 181.871C250.563 182.019 250.525 182.165 250.449 182.292L249.938 183.175L252.826 184.842L253.34 183.955C253.415 183.829 253.523 183.726 253.653 183.659C253.782 183.591 253.928 183.56 254.074 183.571H254.565C254.711 183.561 254.857 183.591 254.986 183.659C255.116 183.727 255.224 183.829 255.299 183.955L255.813 184.846L258.697 183.179L258.186 182.292C258.114 182.165 258.078 182.019 258.084 181.873C258.089 181.726 258.135 181.584 258.217 181.463C258.306 181.324 258.39 181.178 258.467 181.032C258.53 180.9 258.63 180.788 258.754 180.711C258.879 180.633 259.023 180.593 259.17 180.595H260.191V177.258H259.162C259.015 177.26 258.871 177.219 258.746 177.142C258.622 177.064 258.522 176.952 258.459 176.82C258.382 176.674 258.298 176.528 258.21 176.39C258.128 176.268 258.081 176.126 258.076 175.98C258.071 175.833 258.106 175.688 258.179 175.56L258.69 174.673L255.806 173.007L255.291 173.882C255.217 174.008 255.109 174.111 254.979 174.179C254.849 174.246 254.704 174.277 254.558 174.266H254.312H254.066C253.92 174.276 253.774 174.246 253.644 174.178C253.514 174.11 253.405 174.008 253.329 173.882L252.818 173.003ZM254.312 176.19C254.853 176.189 255.382 176.349 255.832 176.649C256.283 176.95 256.634 177.377 256.841 177.876C257.048 178.376 257.103 178.926 256.997 179.457C256.892 179.987 256.632 180.475 256.249 180.858C255.866 181.24 255.379 181.501 254.848 181.606C254.317 181.711 253.767 181.657 253.268 181.45C252.768 181.242 252.341 180.891 252.041 180.441C251.741 179.991 251.581 179.462 251.582 178.92C251.581 178.562 251.651 178.206 251.788 177.874C251.925 177.543 252.126 177.241 252.38 176.987C252.634 176.733 252.935 176.532 253.266 176.395C253.598 176.257 253.953 176.186 254.312 176.186V176.19Z" fill="#32393E"/>
<path d="M65.7791 95.9918L63.1334 98.0194L63.7439 98.8296C63.835 98.9451 63.891 99.0842 63.9053 99.2306C63.9196 99.3769 63.8916 99.5243 63.8246 99.6552C63.7511 99.8047 63.687 99.9586 63.6326 100.116C63.5853 100.255 63.5001 100.377 63.3869 100.47C63.2736 100.563 63.1366 100.623 62.9913 100.642L61.9775 100.773L62.4076 104.079L63.4214 103.948C63.569 103.928 63.7193 103.949 63.8552 104.01C63.9911 104.072 64.1069 104.17 64.1894 104.294C64.2818 104.428 64.3819 104.556 64.4889 104.678C64.5878 104.787 64.6534 104.922 64.6779 105.067C64.7025 105.212 64.6848 105.361 64.6271 105.496L64.2431 106.44L67.3151 107.719L67.6991 106.775C67.7563 106.639 67.8502 106.522 67.9704 106.437C68.0905 106.353 68.232 106.303 68.3788 106.295L68.6246 106.268L68.8665 106.229C69.0086 106.203 69.1553 106.215 69.2907 106.266C69.4261 106.317 69.545 106.404 69.6345 106.517L70.2604 107.335L72.9062 105.308L72.2879 104.497C72.1986 104.38 72.1438 104.241 72.1295 104.094C72.1153 103.948 72.1422 103.8 72.2073 103.668C72.2801 103.52 72.3442 103.367 72.3993 103.211C72.4466 103.072 72.5317 102.95 72.645 102.857C72.7583 102.764 72.8953 102.704 73.0406 102.685L74.0543 102.554L73.6243 99.2482L72.6105 99.3787C72.4633 99.3997 72.3132 99.3787 72.1773 99.3183C72.0415 99.2579 71.9255 99.1603 71.8425 99.037C71.7465 98.8987 71.6467 98.7682 71.5391 98.653C71.4497 98.5418 71.3918 98.4087 71.3715 98.2675C71.3513 98.1263 71.3694 97.9822 71.4239 97.8504L71.8079 96.9058L68.7359 95.627L68.3519 96.5717C68.2941 96.7067 68.1999 96.823 68.0799 96.9077C67.9599 96.9925 67.8188 97.0423 67.6723 97.0517L67.4265 97.0747L67.1999 97.0824C67.0578 97.1092 66.9111 97.0965 66.7757 97.0457C66.6403 96.9949 66.5214 96.908 66.4319 96.7944L65.7791 95.9918ZM67.6723 98.9602C68.2072 98.8914 68.7505 98.9826 69.2336 99.2222C69.7167 99.4619 70.1181 99.8393 70.387 100.307C70.6559 100.774 70.7803 101.311 70.7446 101.849C70.7089 102.387 70.5146 102.903 70.1862 103.33C69.8579 103.758 69.4102 104.079 68.8996 104.253C68.389 104.427 67.8384 104.445 67.3173 104.306C66.7962 104.167 66.3279 103.877 65.9714 103.473C65.615 103.068 65.3864 102.567 65.3145 102.032C65.2665 101.675 65.2895 101.313 65.3822 100.965C65.4749 100.617 65.6354 100.291 65.8545 100.006C66.0736 99.7203 66.347 99.481 66.659 99.3015C66.9709 99.1221 67.3153 99.0061 67.6723 98.9602Z" fill="#32393E"/>
<path d="M46.0108 182.63C46.1551 178.918 46.1038 175.201 45.8572 171.494C45.3078 163.84 44.1405 156.243 42.3667 148.776C41.3913 144.576 40.1932 140.444 38.9414 136.316C38.903 136.189 38.7033 136.224 38.7379 136.354C42.6048 150.908 45.7766 165.922 45.5577 181.052C45.4963 185.276 45.0048 189.442 44.6054 193.651C44.6054 193.762 44.7782 193.808 44.8051 193.693C45.6 190.08 45.8611 186.309 46.0108 182.63Z" fill="#32393E"/>
<path d="M38.7381 136.343C38.7381 136.343 32.886 151.203 34.1954 154.682C35.5048 158.161 38.2082 158.906 38.2082 158.906C38.2082 158.906 34.6255 164.021 37.1292 168.817C39.6328 173.614 45.1932 173.387 45.5772 178.824C45.5656 178.851 45.8728 156.115 38.7381 136.343Z" fill="#32393E"/>
<path d="M44.9281 169.463C44.9376 169.438 44.9376 169.41 44.9281 169.386C44.1601 159.24 42.2563 149.213 39.2526 139.491C39.2526 139.464 39.195 139.472 39.2027 139.491C40.3624 143.843 41.3864 148.213 42.2747 152.601C41.4879 151.856 40.5268 151.32 39.4792 151.042C39.4792 151.042 39.4485 151.065 39.4792 151.073C40.5797 151.476 41.5692 152.134 42.3669 152.993C42.5358 153.857 42.7048 154.717 42.8622 155.581C41.5528 154.118 39.7403 153.392 37.924 152.701C37.9199 152.703 37.9164 152.706 37.9139 152.709C37.9115 152.713 37.9102 152.718 37.9102 152.722C37.9102 152.727 37.9115 152.731 37.9139 152.735C37.9164 152.738 37.9199 152.741 37.924 152.743C39.8171 153.511 41.6987 154.502 42.9813 156.134C43.4267 158.599 43.8184 161.073 44.1563 163.557C43.2108 162.566 41.9983 161.871 40.6658 161.556C40.6235 161.556 40.6005 161.606 40.6427 161.617C42.0116 162.021 43.2337 162.813 44.1601 163.898H44.1832C44.2984 164.769 44.4085 165.643 44.5134 166.521C43.782 165.902 42.9562 165.404 42.0674 165.047C42.0443 165.047 42.029 165.073 42.0674 165.081C42.9744 165.474 43.8051 166.024 44.5211 166.705C44.5211 166.705 44.5403 166.705 44.5518 166.705C44.6478 167.539 44.7438 168.372 44.8283 169.205C43.5097 167.611 41.7984 166.388 39.8632 165.657C39.855 165.657 39.8472 165.66 39.8415 165.666C39.8357 165.672 39.8325 165.68 39.8325 165.688C39.8325 165.696 39.8357 165.704 39.8415 165.71C39.8472 165.715 39.855 165.719 39.8632 165.719C41.7741 166.561 43.4527 167.853 44.7554 169.486C44.7697 169.504 44.789 169.517 44.8109 169.524C44.8328 169.53 44.8563 169.531 44.8782 169.524C45.005 170.803 45.1201 172.081 45.2123 173.364C45.2123 173.383 45.243 173.383 45.243 173.364C45.1432 172.076 45.0382 170.776 44.9281 169.463Z" fill="#050506"/>
<path d="M40.2241 149.579C39.1642 148.919 37.9535 148.541 36.7066 148.481C36.7005 148.481 36.6947 148.483 36.6903 148.488C36.686 148.492 36.6836 148.498 36.6836 148.504C36.6836 148.51 36.686 148.516 36.6903 148.52C36.6947 148.524 36.7005 148.527 36.7066 148.527C37.9121 148.755 39.082 149.143 40.1857 149.679C40.2318 149.69 40.2663 149.61 40.2241 149.579Z" fill="#050506"/>
<path d="M40.9345 165.312C40.1199 164.844 39.223 164.538 38.2926 164.409C38.2618 164.409 38.258 164.451 38.2926 164.459C39.2011 164.641 40.0799 164.949 40.9038 165.373C40.9383 165.392 40.969 165.331 40.9345 165.312Z" fill="#050506"/>
<path d="M61.4017 154.94C58.926 156.651 56.6523 158.637 54.6241 160.861C52.5325 163.215 50.9191 165.954 49.8741 168.925C47.6499 175.114 46.4539 181.626 46.3336 188.202C46.259 191.843 46.6082 195.481 47.3742 199.042C47.3804 199.068 47.3964 199.09 47.4187 199.105C47.4411 199.119 47.4681 199.125 47.4943 199.12C47.5204 199.115 47.5437 199.1 47.5592 199.078C47.5748 199.057 47.5814 199.03 47.5777 199.004C46.6246 192.72 46.6608 186.326 47.6853 180.053C48.6913 173.909 50.2696 167.22 54.1787 162.224C56.3061 159.502 58.9595 157.363 61.5822 155.151C61.7205 155.028 61.5438 154.84 61.4017 154.94Z" fill="#32393E"/>
<path d="M47.1938 183.77C48.6031 181.491 50.2591 179.374 52.1321 177.457C55.062 174.528 57.5273 172.446 57.9113 170.511C58.2953 168.576 54.9775 167.147 54.9775 167.147C54.9775 167.147 59.0287 167.877 60.1385 166.176C61.2482 164.474 61.782 154.621 61.782 154.621C61.782 154.621 54.4092 159.886 50.9724 167.266C47.5356 174.647 47.1938 183.77 47.1938 183.77Z" fill="#32393E"/>
<path d="M59.1361 163.864C58.6506 163.792 58.1585 163.775 57.6692 163.814C57.6116 163.814 57.6155 163.914 57.6692 163.918C58.1531 163.918 58.6407 163.895 59.1246 163.918C59.1301 163.916 59.1351 163.913 59.1391 163.909C59.143 163.905 59.1458 163.9 59.147 163.894C59.1482 163.889 59.1478 163.883 59.1459 163.878C59.1439 163.872 59.1406 163.867 59.1361 163.864Z" fill="#050506"/>
<path d="M53.8407 173.422C53.0621 173.437 52.2925 173.591 51.5674 173.875C51.5674 173.875 51.5674 173.913 51.5674 173.909C52.3354 173.729 53.0765 173.656 53.8368 173.525C53.8467 173.521 53.8552 173.514 53.8613 173.505C53.8674 173.496 53.8709 173.485 53.8713 173.475C53.8717 173.464 53.869 173.453 53.8636 173.444C53.8582 173.434 53.8502 173.427 53.8407 173.422Z" fill="#050506"/>
<path d="M52.251 170.119C51.9277 170.117 51.605 170.145 51.2871 170.204C51.2812 170.206 51.2762 170.21 51.2726 170.215C51.269 170.22 51.2671 170.226 51.2671 170.232C51.2671 170.239 51.269 170.245 51.2726 170.25C51.2762 170.255 51.2812 170.259 51.2871 170.261C51.609 170.28 51.9319 170.266 52.251 170.219C52.2642 170.219 52.2769 170.214 52.2863 170.204C52.2956 170.195 52.3009 170.182 52.3009 170.169C52.3009 170.156 52.2956 170.143 52.2863 170.134C52.2769 170.124 52.2642 170.119 52.251 170.119Z" fill="#050506"/>
<path d="M25.5784 165.392C27.9781 166.206 30.2776 167.289 32.4328 168.622C34.6689 170.043 36.6081 171.884 38.1428 174.044C41.3719 178.538 43.8442 183.531 45.4619 188.824C46.3641 191.754 46.9208 194.78 47.1208 197.84C47.1166 197.86 47.1057 197.878 47.09 197.89C47.0742 197.903 47.0546 197.91 47.0344 197.91C47.0141 197.91 46.9945 197.903 46.9788 197.89C46.963 197.878 46.9522 197.86 46.948 197.84C46.2701 192.535 44.7645 187.369 42.4859 182.53C40.2472 177.788 37.4248 172.742 33.1086 169.601C30.7585 167.892 28.1166 166.771 25.4824 165.588C25.3441 165.542 25.4401 165.346 25.5784 165.392Z" fill="#32393E"/>
<path d="M43.7416 185.441C42.0733 183.923 40.2435 182.593 38.285 181.474C35.236 179.781 32.7592 178.667 32.0027 177.189C31.2462 175.71 33.6002 173.79 33.6002 173.79C33.6002 173.79 30.4898 175.326 29.1995 174.193C27.9093 173.061 25.1982 165.227 25.1982 165.227C25.1982 165.227 32.3829 167.781 36.8642 172.961C41.3454 178.141 43.7416 185.441 43.7416 185.441Z" fill="#32393E"/>
<path d="M37.7779 178.229C37.0715 178.18 36.3623 178.267 35.689 178.487C35.689 178.487 35.689 178.521 35.689 178.517C36.3759 178.4 37.0699 178.328 37.7664 178.302C37.8163 178.302 37.8278 178.233 37.7779 178.229Z" fill="#050506"/>
<path d="M31.511 170.012C31.1888 169.985 30.8645 170.003 30.5472 170.065C30.5126 170.065 30.5242 170.127 30.5472 170.123C30.8659 170.088 31.177 170.1 31.4918 170.092C31.5016 170.093 31.5112 170.09 31.519 170.084C31.5268 170.078 31.5323 170.069 31.5346 170.06C31.5369 170.05 31.5358 170.04 31.5315 170.032C31.5272 170.023 31.5199 170.016 31.511 170.012Z" fill="#050506"/>
<path d="M53.0073 207.744H36.791L39.1027 190.805L39.6941 186.462H50.1043L50.6957 190.805L53.0073 207.744Z" fill="#49535A"/>
<path d="M50.696 190.805H39.103L39.6944 186.462H50.1046L50.696 190.805Z" fill="#606C76"/>
<path d="M51.5903 184.957H38.2041V188.636H51.5903V184.957Z" fill="#49535A"/>
<path d="M144 232.352C184.593 232.352 217.5 228.746 217.5 224.298C217.5 219.85 184.593 216.244 144 216.244C103.407 216.244 70.4995 219.85 70.4995 224.298C70.4995 228.746 103.407 232.352 144 232.352Z" fill="#1B1F22"/>
<path d="M213.393 185.709L213.312 185.325C213.562 185.272 213.807 185.214 214.053 185.149L214.149 185.533C213.888 185.598 213.646 185.656 213.393 185.709Z" fill="white"/>
<path d="M215.635 185.091L215.512 184.73C215.992 184.565 216.472 184.385 216.937 184.189L217.087 184.542C216.614 184.742 216.127 184.926 215.635 185.091ZM218.496 183.866L218.323 183.528C218.772 183.294 219.222 183.041 219.648 182.76L219.848 183.087C219.41 183.39 218.953 183.647 218.496 183.866ZM221.138 182.242L220.911 181.931C221.326 181.628 221.725 181.309 222.102 180.982L222.355 181.27C221.952 181.62 221.568 181.946 221.134 182.257L221.138 182.242ZM223.48 180.199L223.2 179.934C223.553 179.55 223.887 179.166 224.194 178.782L224.498 179.016C224.179 179.439 223.837 179.834 223.488 180.214L223.48 180.199ZM225.381 177.741L225.055 177.538C225.32 177.109 225.556 176.662 225.761 176.202L226.114 176.359C225.897 176.84 225.651 177.306 225.377 177.757L225.381 177.741ZM226.652 174.892L226.268 174.785C226.408 174.303 226.512 173.811 226.579 173.314L226.963 173.364C226.899 173.886 226.794 174.402 226.648 174.908L226.652 174.892ZM227.078 171.82H226.694V171.709C226.694 171.244 226.667 170.772 226.621 170.307L227.005 170.269C227.056 170.747 227.081 171.228 227.082 171.709L227.078 171.82ZM226.387 168.813C226.284 168.318 226.156 167.829 226.003 167.347L226.387 167.231C226.545 167.731 226.679 168.237 226.771 168.733L226.387 168.813ZM225.477 165.922C225.293 165.469 225.093 165.004 224.847 164.536L225.193 164.363C225.427 164.839 225.642 165.315 225.83 165.776L225.477 165.922ZM224.133 163.184C223.895 162.765 223.634 162.324 223.365 161.871L223.691 161.667C223.972 162.124 224.237 162.57 224.459 162.996L224.133 163.184ZM222.528 160.577C222.248 160.154 221.963 159.728 221.672 159.302L221.99 159.087C222.282 159.513 222.566 159.939 222.847 160.369L222.528 160.577ZM220.8 158.035C220.512 157.612 220.22 157.186 219.936 156.764L220.255 156.548C220.539 156.971 220.827 157.397 221.115 157.816L220.8 158.035ZM219.083 155.477C218.803 155.047 218.53 154.609 218.262 154.172L218.588 153.972C218.857 154.41 219.129 154.84 219.406 155.27L219.083 155.477ZM217.482 152.839C217.221 152.374 216.979 151.914 216.76 151.472L217.106 151.299C217.321 151.737 217.563 152.19 217.816 152.651L217.482 152.839ZM216.119 150.074C215.915 149.594 215.735 149.107 215.566 148.63L215.95 148.508C216.111 148.972 216.292 149.452 216.491 149.924L216.119 150.074ZM215.121 147.144C214.994 146.645 214.882 146.134 214.798 145.608L215.182 145.547C215.266 146.038 215.37 146.538 215.497 147.029L215.121 147.144ZM214.606 144.072C214.568 143.6 214.548 143.124 214.548 142.648V142.521H214.932V142.644C214.932 143.108 214.932 143.577 214.99 144.038L214.606 144.072ZM214.99 141L214.606 140.962C214.606 140.858 214.625 140.751 214.637 140.639C214.683 140.228 214.74 139.818 214.809 139.426L215.193 139.491C215.128 139.875 215.071 140.278 215.025 140.682C215.04 140.801 215.04 140.904 215.009 141.012L214.99 141ZM215.524 138.013L215.14 137.909C215.282 137.402 215.447 136.907 215.631 136.435L215.988 136.573C215.814 137.048 215.665 137.533 215.543 138.024L215.524 138.013ZM234.658 135.774C234.443 135.774 234.221 135.743 234.002 135.713C233.702 135.67 233.403 135.62 233.107 135.563L233.184 135.179C233.468 135.233 233.764 135.283 234.056 135.325C234.263 135.352 234.474 135.371 234.678 135.382L234.658 135.774ZM236.237 135.655L236.156 135.271C236.638 135.172 237.1 134.992 237.523 134.741L237.723 135.068C237.271 135.347 236.775 135.55 236.256 135.667L236.237 135.655ZM216.63 135.198L216.288 135.018C216.532 134.56 216.803 134.116 217.098 133.689L217.413 133.908C217.132 134.326 216.877 134.761 216.649 135.21L216.63 135.198ZM231.606 135.175C231.11 135.018 230.623 134.834 230.146 134.626L230.304 134.273C230.765 134.478 231.239 134.656 231.721 134.806L231.606 135.175ZM238.902 133.977L238.583 133.762C238.856 133.365 239.018 132.902 239.051 132.422L239.435 132.449C239.403 133 239.222 133.531 238.913 133.988L238.902 133.977ZM228.764 133.919C228.315 133.658 227.88 133.372 227.462 133.063L227.689 132.756C228.095 133.056 228.518 133.333 228.956 133.585L228.764 133.919ZM218.358 132.721L218.073 132.464C218.421 132.077 218.792 131.712 219.183 131.37L219.437 131.658C219.06 131.995 218.703 132.354 218.369 132.733L218.358 132.721ZM226.264 132.072C225.882 131.72 225.519 131.347 225.177 130.955L225.465 130.701C225.798 131.082 226.15 131.445 226.521 131.788L226.264 132.072ZM238.763 131.032C238.543 130.593 238.239 130.201 237.869 129.88L238.122 129.592C238.53 129.945 238.865 130.374 239.109 130.855L238.763 131.032ZM220.631 130.728L220.412 130.413C220.842 130.12 221.286 129.85 221.745 129.603L221.925 129.941C221.484 130.185 221.056 130.451 220.642 130.74L220.631 130.728ZM224.217 129.73C224.072 129.523 223.929 129.311 223.795 129.092L223.296 129.288L223.15 128.935L223.592 128.758C223.522 128.643 223.453 128.528 223.388 128.413L223.722 128.225C223.799 128.359 223.876 128.493 223.956 128.609C224.171 128.532 224.39 128.459 224.613 128.39L224.724 128.774C224.536 128.831 224.34 128.893 224.164 128.958C224.283 129.146 224.406 129.342 224.548 129.507L224.217 129.73ZM236.632 129.069C236.261 128.884 235.876 128.728 235.48 128.601L235.227 128.52L235.338 128.136L235.599 128.221C236.011 128.352 236.411 128.515 236.797 128.708L236.632 129.069ZM226.195 128.382L226.114 127.998C226.61 127.887 227.124 127.795 227.65 127.722L227.708 128.106C227.201 128.186 226.698 128.282 226.207 128.394L226.195 128.382ZM233.76 128.175C233.28 128.09 232.773 128.025 232.255 127.979L232.285 127.595C232.819 127.641 233.337 127.706 233.821 127.795L233.76 128.175ZM229.209 127.952L229.183 127.568C229.64 127.541 230.097 127.526 230.55 127.526H230.738V127.91H230.553C230.12 127.921 229.666 127.933 229.221 127.964L229.209 127.952ZM222.72 127.034C222.513 126.566 222.336 126.078 222.163 125.583L222.547 125.464C222.708 125.948 222.889 126.424 223.089 126.881L222.72 127.034ZM221.748 124.085C221.633 123.59 221.537 123.075 221.464 122.549L221.848 122.495C221.921 123.002 222.013 123.505 222.125 123.993L221.748 124.085ZM221.318 121.013C221.299 120.668 221.288 120.314 221.288 119.961C221.288 119.796 221.288 119.627 221.288 119.462H221.672C221.672 119.627 221.672 119.788 221.672 119.953C221.672 120.299 221.672 120.648 221.698 120.982L221.318 121.013ZM221.775 117.941L221.391 117.903C221.445 117.396 221.518 116.877 221.606 116.367L221.99 116.432C221.887 116.943 221.814 117.434 221.764 117.949L221.775 117.941ZM222.301 114.942L221.917 114.85C222.04 114.355 222.182 113.855 222.34 113.356L222.724 113.475C222.551 113.978 222.409 114.466 222.29 114.95L222.301 114.942ZM223.223 112.035L222.866 111.897C223.054 111.417 223.25 110.937 223.484 110.472L223.83 110.641C223.599 111.102 223.396 111.571 223.211 112.058L223.223 112.035ZM224.544 109.297L224.21 109.101C224.471 108.66 224.751 108.218 225.043 107.796L225.358 108.015C225.058 108.437 224.786 108.867 224.532 109.305L224.544 109.297ZM226.276 106.797L225.976 106.556C226.299 106.172 226.644 105.764 227.001 105.404L227.278 105.668C226.917 106.029 226.579 106.413 226.264 106.805L226.276 106.797ZM228.365 104.586L228.107 104.301C228.491 103.96 228.875 103.622 229.286 103.295L229.524 103.599C229.113 103.925 228.722 104.259 228.353 104.593L228.365 104.586ZM230.749 102.689L230.53 102.37C230.949 102.082 231.387 101.798 231.832 101.529L232.028 101.855C231.583 102.128 231.168 102.408 230.738 102.696L230.749 102.689ZM233.357 101.103L233.176 100.765C233.629 100.523 234.098 100.292 234.566 100.077L234.728 100.427C234.24 100.646 233.791 100.876 233.345 101.11L233.357 101.103ZM236.133 99.8278L235.991 99.4669C236.475 99.2787 236.962 99.0829 237.446 98.9408L237.569 99.3248C237.081 99.4707 236.598 99.6474 236.121 99.8355L236.133 99.8278Z" fill="white"/>
<path d="M239.094 98.8563L238.998 98.4723C239.474 98.3494 239.766 98.2957 239.766 98.2957L239.835 98.6797C239.835 98.6797 239.558 98.7373 239.094 98.8563Z" fill="white"/>
<path d="M245.883 96.3757C244.904 93.3421 238.345 94.4326 239.624 98.3994C240.902 102.366 246.862 99.4131 245.883 96.3757Z" fill="white"/>
<path d="M236.056 95.1622C236.106 93.8298 237.957 92.8045 240.576 93.2768C243.195 93.7491 245.656 95.5155 245.656 95.5155C245.656 95.5155 243.072 97.0822 240.426 97.3702C237.78 97.6582 236.006 96.4909 236.056 95.1622Z" fill="#32393E"/>
<path d="M245.656 95.5079C244.297 95.5079 242.942 95.4695 241.586 95.4272C240.23 95.385 238.871 95.3159 237.516 95.2083C238.875 95.2083 240.234 95.2429 241.59 95.2851C242.945 95.3274 244.305 95.3965 245.656 95.5079Z" fill="white"/>
<path d="M238.687 93.9757C239.458 94.3449 240.186 94.7996 240.856 95.3312C240.47 95.15 240.095 94.9448 239.735 94.7168C239.371 94.4904 239.021 94.2429 238.687 93.9757Z" fill="white"/>
<path d="M242.246 95.3811C241.552 95.9441 240.799 96.4308 240 96.8327C240.698 96.269 241.455 95.7823 242.258 95.3811H242.246Z" fill="white"/>
<path d="M242.642 94.6323C243.03 94.8184 243.369 95.0918 243.633 95.431C243.439 95.3396 243.257 95.2248 243.091 95.0893C242.925 94.9546 242.774 94.8013 242.642 94.6323Z" fill="white"/>
<path d="M238.552 103.053C239.37 104.106 241.471 103.852 243.318 101.94C245.165 100.028 246.144 97.1514 246.144 97.1514C246.144 97.1514 243.118 97.3818 240.81 98.6874C238.502 99.993 237.73 101.997 238.552 103.053Z" fill="#32393E"/>
<path d="M246.144 97.1514C245.038 97.9194 243.963 98.7718 242.884 99.5974C241.805 100.423 240.749 101.276 239.716 102.155C240.822 101.387 241.897 100.538 242.972 99.7126C244.047 98.887 245.096 98.0346 246.144 97.1514Z" fill="white"/>
<path d="M241.375 102.458C241.58 102.085 241.763 101.701 241.924 101.306C242.087 100.911 242.226 100.506 242.338 100.093C242.132 100.465 241.949 100.85 241.789 101.245C241.627 101.641 241.489 102.046 241.375 102.458Z" fill="white"/>
<path d="M243.456 99.248C242.558 99.2 241.656 99.2476 240.768 99.3901C241.216 99.417 241.664 99.417 242.112 99.3901C242.562 99.3681 243.011 99.3207 243.456 99.248Z" fill="white"/>
<path d="M244.197 99.6282C244.3 99.4385 244.38 99.2375 244.435 99.0291C244.492 98.8223 244.526 98.6098 244.535 98.3955C244.331 98.7757 244.216 99.1971 244.197 99.6282Z" fill="white"/>
<path d="M245.883 96.3757C245.666 96.4461 245.433 96.4506 245.214 96.3885C244.994 96.3265 244.798 96.2008 244.65 96.0272C244.502 95.8537 244.409 95.6402 244.383 95.4137C244.356 95.1872 244.398 94.958 244.502 94.755C244.605 94.5521 244.767 94.3845 244.966 94.2736C245.166 94.1626 245.393 94.1133 245.621 94.1318C245.848 94.1503 246.064 94.2359 246.243 94.3776C246.422 94.5193 246.554 94.7109 246.624 94.928C246.717 95.2183 246.691 95.5336 246.552 95.8049C246.414 96.0763 246.173 96.2815 245.883 96.3757Z" fill="#CCD2D6"/>
<path d="M246.59 98.5683C246.373 98.6385 246.14 98.6428 245.921 98.5807C245.702 98.5186 245.506 98.3929 245.358 98.2196C245.21 98.0462 245.117 97.8329 245.091 97.6066C245.064 97.3804 245.105 97.1513 245.209 96.9484C245.313 96.7455 245.474 96.5779 245.673 96.4667C245.872 96.3556 246.099 96.3059 246.326 96.3239C246.553 96.3419 246.77 96.4269 246.949 96.568C247.128 96.7091 247.261 96.9001 247.331 97.1168C247.378 97.2608 247.395 97.4125 247.383 97.5634C247.371 97.7143 247.33 97.8613 247.261 97.9961C247.192 98.1309 247.097 98.2509 246.982 98.349C246.867 98.4472 246.734 98.5217 246.59 98.5683Z" fill="#CCD2D6"/>
</svg>
