<svg width="288" height="253" viewBox="0 0 288 253" fill="none" xmlns="http://www.w3.org/2000/svg">
<path d="M255.609 118.69L251.934 136.488L249.569 134.181L245.545 137.053L242.469 133.232L235.572 138.247L229.678 128.39L223.104 132.241L220.496 128.647L212.148 133.351L209.637 127.971L215.489 99.6283L246.862 106.106L255.609 118.69Z" fill="#E9EBED"/>
<path d="M246.862 106.106L255.609 118.69L244.727 116.444L246.862 106.106Z" fill="#CCD2D6"/>
<path d="M251.151 140.044L245.763 166.156L203.504 157.432L208.853 131.531L211.364 136.907L219.716 132.203L222.32 135.797L228.898 131.95L234.788 141.807L241.689 136.792L244.761 140.609L248.789 137.74L251.151 140.044Z" fill="#E9EBED"/>
<path d="M214.667 88.9838L171.601 91.6488L168.18 36.3682L200.159 34.3867L211.898 44.2363L214.667 88.9838Z" fill="#E9EBED"/>
<path d="M200.159 34.3867L211.898 44.2363L200.808 44.9237L200.159 34.3867Z" fill="#CCD2D6"/>
<path d="M188.236 71.5848L188.067 70.3368C187.633 67.7525 188.34 64.861 190.586 61.8389C192.614 59.1509 193.712 57.2309 193.589 55.0497C193.451 52.5922 191.819 51.0408 188.781 51.1637C187.045 51.2538 185.378 51.8699 184.001 52.9301L182.676 49.9618C184.212 48.7138 186.9 47.7922 189.453 47.6578C194.995 47.3506 197.69 50.6299 197.901 54.2894C198.086 57.5649 196.388 60.0264 194.23 62.9026C192.249 65.5253 191.6 67.6872 191.88 70.1333L191.999 71.3851L188.236 71.5848ZM187.553 78.3854C187.453 76.6037 188.586 75.2827 190.271 75.1906C191.957 75.0984 193.186 76.2811 193.286 78.0667C193.378 79.7525 192.345 81.1118 190.563 81.2117C188.862 81.3077 187.633 80.0712 187.537 78.3854H187.553Z" fill="#CCD2D6"/>
<path d="M56.5162 110.181L52.1847 108.218L51.5818 109.543C51.4928 109.733 51.3539 109.894 51.1801 110.01C51.0062 110.127 50.8039 110.194 50.595 110.204C50.3569 110.211 50.1196 110.235 49.8846 110.273C49.6782 110.303 49.4674 110.277 49.2747 110.198C49.0819 110.118 48.9145 109.987 48.7902 109.82L47.9415 108.633L44.0746 111.406L44.9233 112.592C45.0413 112.763 45.1108 112.963 45.1243 113.171C45.1378 113.379 45.0949 113.586 45.0001 113.771C44.8906 113.982 44.7919 114.199 44.7044 114.42C44.6283 114.615 44.5005 114.786 44.3348 114.914C44.169 115.041 43.9716 115.122 43.7636 115.146L42.3159 115.288L42.7806 120.023L44.2359 119.877C44.4446 119.86 44.6539 119.9 44.8414 119.994C45.0288 120.087 45.1872 120.23 45.2996 120.407C45.361 120.506 45.4263 120.602 45.4954 120.698C45.5646 120.794 45.6337 120.887 45.7066 120.979C45.8391 121.14 45.9244 121.335 45.9528 121.542C45.9813 121.748 45.9519 121.959 45.8679 122.15L45.2612 123.486L49.5966 125.452L50.1994 124.12C50.2893 123.931 50.429 123.77 50.6036 123.654C50.7781 123.538 50.9809 123.472 51.1902 123.463C51.4255 123.453 51.6601 123.43 51.8929 123.394C52.0992 123.363 52.31 123.389 52.5028 123.469C52.6955 123.549 52.863 123.68 52.9873 123.847L53.8359 125.034L57.7066 122.261L56.858 121.075C56.7363 120.905 56.6646 120.705 56.6511 120.496C56.6375 120.288 56.6826 120.08 56.7812 119.896C56.8882 119.686 56.9843 119.471 57.0692 119.251C57.143 119.054 57.2702 118.882 57.4364 118.754C57.6026 118.626 57.8012 118.547 58.01 118.525L59.4654 118.379L58.9969 113.644L57.5415 113.786C57.3341 113.805 57.1257 113.765 56.9393 113.672C56.753 113.579 56.5959 113.437 56.4855 113.26C56.4202 113.16 56.355 113.064 56.2858 112.968C56.2167 112.872 56.1476 112.776 56.0746 112.688C55.943 112.525 55.8584 112.329 55.83 112.121C55.8016 111.913 55.8304 111.702 55.9134 111.509L56.5162 110.181ZM54.0586 114.562C54.5077 115.189 54.7608 115.934 54.786 116.705C54.8112 117.475 54.6073 118.236 54.2002 118.891C53.7931 119.545 53.2009 120.065 52.4987 120.383C51.7964 120.701 51.0156 120.803 50.255 120.678C49.4944 120.552 48.7882 120.204 48.2256 119.677C47.663 119.149 47.2694 118.467 47.0945 117.717C46.9196 116.966 46.9713 116.18 47.2431 115.458C47.5148 114.737 47.9944 114.112 48.6212 113.664C49.4615 113.062 50.5063 112.818 51.526 112.987C52.5456 113.155 53.4566 113.722 54.0586 114.562Z" fill="#E9EBED"/>
<path d="M252.318 173.003L249.43 174.67L249.941 175.553C250.017 175.68 250.055 175.826 250.051 175.973C250.046 176.121 249.999 176.265 249.914 176.386C249.826 176.524 249.742 176.666 249.665 176.816C249.602 176.949 249.502 177.06 249.377 177.138C249.253 177.215 249.109 177.256 248.962 177.254H247.948V180.591H248.97C249.116 180.589 249.261 180.629 249.385 180.707C249.51 180.785 249.609 180.896 249.672 181.029C249.749 181.178 249.834 181.32 249.922 181.459C250.006 181.58 250.054 181.724 250.058 181.871C250.063 182.019 250.025 182.165 249.949 182.292L249.438 183.175L252.326 184.842L252.84 183.955C252.915 183.829 253.023 183.726 253.153 183.659C253.282 183.591 253.428 183.56 253.574 183.571H254.065C254.211 183.561 254.357 183.591 254.486 183.659C254.616 183.727 254.724 183.829 254.799 183.955L255.313 184.846L258.197 183.179L257.686 182.292C257.614 182.165 257.578 182.019 257.584 181.873C257.589 181.726 257.635 181.584 257.717 181.463C257.806 181.324 257.89 181.178 257.967 181.032C258.03 180.9 258.13 180.788 258.254 180.711C258.379 180.633 258.523 180.593 258.67 180.595H259.691V177.258H258.662C258.515 177.26 258.371 177.219 258.246 177.142C258.122 177.064 258.022 176.952 257.959 176.82C257.882 176.674 257.798 176.528 257.71 176.39C257.628 176.268 257.581 176.126 257.576 175.98C257.571 175.833 257.606 175.688 257.679 175.56L258.19 174.673L255.306 173.007L254.791 173.882C254.717 174.008 254.609 174.111 254.479 174.179C254.349 174.246 254.204 174.277 254.058 174.266H253.812H253.566C253.42 174.276 253.274 174.246 253.144 174.178C253.014 174.11 252.905 174.008 252.829 173.882L252.318 173.003ZM253.812 176.19C254.353 176.189 254.882 176.349 255.332 176.649C255.783 176.95 256.134 177.377 256.341 177.876C256.548 178.376 256.603 178.926 256.497 179.457C256.392 179.987 256.132 180.475 255.749 180.858C255.366 181.24 254.879 181.501 254.348 181.606C253.817 181.711 253.267 181.657 252.768 181.45C252.268 181.242 251.841 180.891 251.541 180.441C251.241 179.991 251.081 179.462 251.082 178.92C251.081 178.562 251.151 178.206 251.288 177.874C251.425 177.543 251.626 177.241 251.88 176.987C252.134 176.733 252.435 176.532 252.766 176.395C253.098 176.257 253.453 176.186 253.812 176.186V176.19Z" fill="#E9EBED"/>
<path d="M65.2791 95.9918L62.6334 98.0194L63.2439 98.8296C63.335 98.9451 63.391 99.0842 63.4053 99.2306C63.4196 99.3769 63.3916 99.5243 63.3246 99.6552C63.2511 99.8047 63.187 99.9586 63.1326 100.116C63.0853 100.255 63.0001 100.377 62.8869 100.47C62.7736 100.563 62.6366 100.623 62.4913 100.642L61.4775 100.773L61.9076 104.079L62.9214 103.948C63.069 103.928 63.2193 103.949 63.3552 104.01C63.4911 104.072 63.6069 104.17 63.6894 104.294C63.7818 104.428 63.8819 104.556 63.9889 104.678C64.0878 104.787 64.1534 104.922 64.1779 105.067C64.2025 105.212 64.1848 105.361 64.1271 105.496L63.7431 106.44L66.8151 107.719L67.1991 106.775C67.2563 106.639 67.3502 106.522 67.4704 106.437C67.5905 106.353 67.732 106.303 67.8788 106.295L68.1246 106.268L68.3665 106.229C68.5086 106.203 68.6553 106.215 68.7907 106.266C68.9261 106.317 69.045 106.404 69.1345 106.517L69.7604 107.335L72.4062 105.308L71.7879 104.497C71.6986 104.38 71.6438 104.241 71.6295 104.094C71.6153 103.948 71.6422 103.8 71.7073 103.668C71.7801 103.52 71.8442 103.367 71.8993 103.211C71.9466 103.072 72.0317 102.95 72.145 102.857C72.2583 102.764 72.3953 102.704 72.5406 102.685L73.5543 102.554L73.1243 99.2482L72.1105 99.3787C71.9633 99.3997 71.8132 99.3787 71.6773 99.3183C71.5415 99.2579 71.4255 99.1603 71.3425 99.037C71.2465 98.8987 71.1467 98.7682 71.0391 98.653C70.9497 98.5418 70.8918 98.4087 70.8715 98.2675C70.8513 98.1263 70.8694 97.9822 70.9239 97.8504L71.3079 96.9058L68.2359 95.627L67.8519 96.5717C67.7941 96.7067 67.6999 96.823 67.5799 96.9077C67.4599 96.9925 67.3188 97.0423 67.1723 97.0517L66.9265 97.0747L66.6999 97.0824C66.5578 97.1092 66.4111 97.0965 66.2757 97.0457C66.1403 96.9949 66.0214 96.908 65.9319 96.7944L65.2791 95.9918ZM67.1723 98.9602C67.7072 98.8914 68.2505 98.9826 68.7336 99.2222C69.2167 99.4619 69.6181 99.8393 69.887 100.307C70.1559 100.774 70.2803 101.311 70.2446 101.849C70.2089 102.387 70.0146 102.903 69.6862 103.33C69.3579 103.758 68.9102 104.079 68.3996 104.253C67.889 104.427 67.3384 104.445 66.8173 104.306C66.2962 104.167 65.8279 103.877 65.4714 103.473C65.115 103.068 64.8864 102.567 64.8145 102.032C64.7665 101.675 64.7895 101.313 64.8822 100.965C64.9749 100.617 65.1354 100.291 65.3545 100.006C65.5736 99.7203 65.847 99.481 66.159 99.3015C66.4709 99.1221 66.8153 99.0061 67.1723 98.9602Z" fill="#E9EBED"/>
<path d="M45.5108 182.63C45.6551 178.918 45.6038 175.201 45.3572 171.494C44.8078 163.84 43.6405 156.243 41.8667 148.776C40.8913 144.576 39.6932 140.444 38.4414 136.316C38.403 136.189 38.2033 136.224 38.2379 136.354C42.1048 150.908 45.2766 165.922 45.0577 181.052C44.9963 185.276 44.5048 189.442 44.1054 193.651C44.1054 193.762 44.2782 193.808 44.3051 193.693C45.1 190.08 45.3611 186.309 45.5108 182.63Z" fill="#E9EBED"/>
<path d="M38.2381 136.343C38.2381 136.343 32.386 151.203 33.6954 154.682C35.0048 158.161 37.7082 158.906 37.7082 158.906C37.7082 158.906 34.1255 164.021 36.6292 168.817C39.1328 173.614 44.6932 173.387 45.0772 178.824C45.0656 178.851 45.3728 156.115 38.2381 136.343Z" fill="#E9EBED"/>
<path d="M44.4281 169.463C44.4376 169.438 44.4376 169.41 44.4281 169.386C43.6601 159.24 41.7563 149.213 38.7526 139.491C38.7526 139.464 38.695 139.472 38.7027 139.491C39.8624 143.843 40.8864 148.213 41.7747 152.601C40.9879 151.856 40.0268 151.32 38.9792 151.042C38.9792 151.042 38.9485 151.065 38.9792 151.073C40.0797 151.476 41.0692 152.134 41.8669 152.993C42.0358 153.857 42.2048 154.717 42.3622 155.581C41.0528 154.118 39.2403 153.392 37.424 152.701C37.4199 152.703 37.4164 152.706 37.4139 152.709C37.4115 152.713 37.4102 152.718 37.4102 152.722C37.4102 152.727 37.4115 152.731 37.4139 152.735C37.4164 152.738 37.4199 152.741 37.424 152.743C39.3171 153.511 41.1987 154.502 42.4813 156.134C42.9267 158.599 43.3184 161.073 43.6563 163.557C42.7108 162.566 41.4983 161.871 40.1658 161.556C40.1235 161.556 40.1005 161.606 40.1427 161.617C41.5116 162.021 42.7337 162.813 43.6601 163.898H43.6832C43.7984 164.769 43.9085 165.643 44.0134 166.521C43.282 165.902 42.4562 165.404 41.5674 165.047C41.5443 165.047 41.529 165.073 41.5674 165.081C42.4744 165.474 43.3051 166.024 44.0211 166.705C44.0211 166.705 44.0403 166.705 44.0518 166.705C44.1478 167.539 44.2438 168.372 44.3283 169.205C43.0097 167.611 41.2984 166.388 39.3632 165.657C39.355 165.657 39.3472 165.66 39.3415 165.666C39.3357 165.672 39.3325 165.68 39.3325 165.688C39.3325 165.696 39.3357 165.704 39.3415 165.71C39.3472 165.715 39.355 165.719 39.3632 165.719C41.2741 166.561 42.9527 167.853 44.2554 169.486C44.2697 169.504 44.289 169.517 44.3109 169.524C44.3328 169.53 44.3563 169.531 44.3782 169.524C44.505 170.803 44.6201 172.081 44.7123 173.364C44.7123 173.383 44.743 173.383 44.743 173.364C44.6432 172.076 44.5382 170.776 44.4281 169.463Z" fill="white"/>
<path d="M39.7241 149.579C38.6642 148.919 37.4535 148.541 36.2066 148.481C36.2005 148.481 36.1947 148.483 36.1903 148.488C36.186 148.492 36.1836 148.498 36.1836 148.504C36.1836 148.51 36.186 148.516 36.1903 148.52C36.1947 148.524 36.2005 148.527 36.2066 148.527C37.4121 148.755 38.582 149.143 39.6857 149.679C39.7318 149.69 39.7663 149.61 39.7241 149.579Z" fill="white"/>
<path d="M40.4345 165.312C39.6199 164.844 38.723 164.538 37.7926 164.409C37.7618 164.409 37.758 164.451 37.7926 164.459C38.7011 164.641 39.5799 164.949 40.4038 165.373C40.4383 165.392 40.469 165.331 40.4345 165.312Z" fill="white"/>
<path d="M60.9017 154.94C58.426 156.651 56.1523 158.637 54.1241 160.861C52.0325 163.215 50.4191 165.954 49.3741 168.925C47.1499 175.114 45.9539 181.626 45.8336 188.202C45.759 191.843 46.1082 195.481 46.8742 199.042C46.8804 199.068 46.8964 199.09 46.9187 199.105C46.9411 199.119 46.9681 199.125 46.9943 199.12C47.0204 199.115 47.0437 199.1 47.0592 199.078C47.0748 199.057 47.0814 199.03 47.0777 199.004C46.1246 192.72 46.1608 186.326 47.1853 180.053C48.1913 173.909 49.7696 167.22 53.6787 162.224C55.8061 159.502 58.4595 157.363 61.0822 155.151C61.2205 155.028 61.0438 154.84 60.9017 154.94Z" fill="#E9EBED"/>
<path d="M46.6938 183.77C48.1031 181.491 49.7591 179.374 51.6321 177.457C54.562 174.528 57.0273 172.446 57.4113 170.511C57.7953 168.576 54.4775 167.147 54.4775 167.147C54.4775 167.147 58.5287 167.877 59.6385 166.176C60.7482 164.474 61.282 154.621 61.282 154.621C61.282 154.621 53.9092 159.886 50.4724 167.266C47.0356 174.647 46.6938 183.77 46.6938 183.77Z" fill="#E9EBED"/>
<path d="M58.6361 163.864C58.1506 163.792 57.6585 163.775 57.1692 163.814C57.1116 163.814 57.1155 163.914 57.1692 163.918C57.6531 163.918 58.1407 163.895 58.6246 163.918C58.6301 163.916 58.6351 163.913 58.6391 163.909C58.643 163.905 58.6458 163.9 58.647 163.894C58.6482 163.889 58.6478 163.883 58.6459 163.878C58.6439 163.872 58.6406 163.867 58.6361 163.864Z" fill="white"/>
<path d="M53.3407 173.422C52.5621 173.437 51.7925 173.591 51.0674 173.875C51.0674 173.875 51.0674 173.913 51.0674 173.909C51.8354 173.729 52.5765 173.656 53.3368 173.525C53.3467 173.521 53.3552 173.514 53.3613 173.505C53.3674 173.496 53.3709 173.485 53.3713 173.475C53.3717 173.464 53.369 173.453 53.3636 173.444C53.3582 173.434 53.3502 173.427 53.3407 173.422Z" fill="white"/>
<path d="M51.751 170.119C51.4277 170.117 51.105 170.145 50.7871 170.204C50.7812 170.206 50.7762 170.21 50.7726 170.215C50.769 170.22 50.7671 170.226 50.7671 170.232C50.7671 170.239 50.769 170.245 50.7726 170.25C50.7762 170.255 50.7812 170.259 50.7871 170.261C51.109 170.28 51.4319 170.266 51.751 170.219C51.7642 170.219 51.7769 170.214 51.7863 170.204C51.7956 170.195 51.8009 170.182 51.8009 170.169C51.8009 170.156 51.7956 170.143 51.7863 170.134C51.7769 170.124 51.7642 170.119 51.751 170.119Z" fill="white"/>
<path d="M25.0784 165.392C27.4781 166.206 29.7776 167.289 31.9328 168.622C34.1689 170.043 36.1081 171.884 37.6428 174.044C40.8719 178.538 43.3442 183.531 44.9619 188.824C45.8641 191.754 46.4208 194.78 46.6208 197.84C46.6166 197.86 46.6057 197.878 46.59 197.89C46.5742 197.903 46.5546 197.91 46.5344 197.91C46.5141 197.91 46.4945 197.903 46.4788 197.89C46.463 197.878 46.4522 197.86 46.448 197.84C45.7701 192.535 44.2645 187.369 41.9859 182.53C39.7472 177.788 36.9248 172.742 32.6086 169.601C30.2585 167.892 27.6166 166.771 24.9824 165.588C24.8441 165.542 24.9401 165.346 25.0784 165.392Z" fill="#E9EBED"/>
<path d="M43.2416 185.441C41.5733 183.923 39.7435 182.593 37.785 181.474C34.736 179.781 32.2592 178.667 31.5027 177.189C30.7462 175.71 33.1002 173.79 33.1002 173.79C33.1002 173.79 29.9898 175.326 28.6995 174.193C27.4093 173.061 24.6982 165.227 24.6982 165.227C24.6982 165.227 31.8829 167.781 36.3642 172.961C40.8454 178.141 43.2416 185.441 43.2416 185.441Z" fill="#E9EBED"/>
<path d="M37.2779 178.229C36.5715 178.18 35.8623 178.267 35.189 178.487C35.189 178.487 35.189 178.521 35.189 178.517C35.8759 178.4 36.5699 178.328 37.2664 178.302C37.3163 178.302 37.3278 178.233 37.2779 178.229Z" fill="white"/>
<path d="M31.011 170.012C30.6888 169.985 30.3645 170.003 30.0472 170.065C30.0126 170.065 30.0242 170.127 30.0472 170.123C30.3659 170.088 30.677 170.1 30.9918 170.092C31.0016 170.093 31.0112 170.09 31.019 170.084C31.0268 170.078 31.0323 170.069 31.0346 170.06C31.0369 170.05 31.0358 170.04 31.0315 170.032C31.0272 170.023 31.0199 170.016 31.011 170.012Z" fill="white"/>
<path d="M52.5073 207.744H36.291L38.6027 190.805L39.1941 186.462H49.6043L50.1957 190.805L52.5073 207.744Z" fill="#CCD2D6"/>
<path d="M50.196 190.805H38.603L39.1944 186.462H49.6046L50.196 190.805Z" fill="#B0B8BF"/>
<path d="M51.0903 184.957H37.7041V188.636H51.0903V184.957Z" fill="#CCD2D6"/>
<path d="M143.5 232.352C184.093 232.352 217 228.746 217 224.298C217 219.85 184.093 216.244 143.5 216.244C102.907 216.244 69.9995 219.85 69.9995 224.298C69.9995 228.746 102.907 232.352 143.5 232.352Z" fill="#F9FAFA"/>
<path d="M212.893 185.709L212.812 185.325C213.062 185.272 213.307 185.214 213.553 185.149L213.649 185.533C213.388 185.598 213.146 185.656 212.893 185.709Z" fill="#050506"/>
<path d="M215.135 185.091L215.012 184.73C215.492 184.565 215.972 184.385 216.437 184.189L216.587 184.542C216.114 184.742 215.627 184.926 215.135 185.091ZM217.996 183.866L217.823 183.528C218.272 183.294 218.722 183.041 219.148 182.76L219.348 183.087C218.91 183.39 218.453 183.647 217.996 183.866ZM220.638 182.242L220.411 181.931C220.826 181.628 221.225 181.309 221.602 180.982L221.855 181.27C221.452 181.62 221.068 181.946 220.634 182.257L220.638 182.242ZM222.98 180.199L222.7 179.934C223.053 179.55 223.387 179.166 223.694 178.782L223.998 179.016C223.679 179.439 223.337 179.834 222.988 180.214L222.98 180.199ZM224.881 177.741L224.555 177.538C224.82 177.109 225.056 176.662 225.261 176.202L225.614 176.359C225.397 176.84 225.151 177.306 224.877 177.757L224.881 177.741ZM226.152 174.892L225.768 174.785C225.908 174.303 226.012 173.811 226.079 173.314L226.463 173.364C226.399 173.886 226.294 174.402 226.148 174.908L226.152 174.892ZM226.578 171.82H226.194V171.709C226.194 171.244 226.167 170.772 226.121 170.307L226.505 170.269C226.556 170.747 226.581 171.228 226.582 171.709L226.578 171.82ZM225.887 168.813C225.784 168.318 225.656 167.829 225.503 167.347L225.887 167.231C226.045 167.731 226.179 168.237 226.271 168.733L225.887 168.813ZM224.977 165.922C224.793 165.469 224.593 165.004 224.347 164.536L224.693 164.363C224.927 164.839 225.142 165.315 225.33 165.776L224.977 165.922ZM223.633 163.184C223.395 162.765 223.134 162.324 222.865 161.871L223.191 161.667C223.472 162.124 223.737 162.57 223.959 162.996L223.633 163.184ZM222.028 160.577C221.748 160.154 221.463 159.728 221.172 159.302L221.49 159.087C221.782 159.513 222.066 159.939 222.347 160.369L222.028 160.577ZM220.3 158.035C220.012 157.612 219.72 157.186 219.436 156.764L219.755 156.548C220.039 156.971 220.327 157.397 220.615 157.816L220.3 158.035ZM218.583 155.477C218.303 155.047 218.03 154.609 217.762 154.172L218.088 153.972C218.357 154.41 218.629 154.84 218.906 155.27L218.583 155.477ZM216.982 152.839C216.721 152.374 216.479 151.914 216.26 151.472L216.606 151.299C216.821 151.737 217.063 152.19 217.316 152.651L216.982 152.839ZM215.619 150.074C215.415 149.594 215.235 149.107 215.066 148.63L215.45 148.508C215.611 148.972 215.792 149.452 215.991 149.924L215.619 150.074ZM214.621 147.144C214.494 146.645 214.382 146.134 214.298 145.608L214.682 145.547C214.766 146.038 214.87 146.538 214.997 147.029L214.621 147.144ZM214.106 144.072C214.068 143.6 214.048 143.124 214.048 142.648V142.521H214.432V142.644C214.432 143.108 214.432 143.577 214.49 144.038L214.106 144.072ZM214.49 141L214.106 140.962C214.106 140.858 214.125 140.751 214.137 140.639C214.183 140.228 214.24 139.818 214.309 139.426L214.693 139.491C214.628 139.875 214.571 140.278 214.525 140.682C214.54 140.801 214.54 140.904 214.509 141.012L214.49 141ZM215.024 138.013L214.64 137.909C214.782 137.402 214.947 136.907 215.131 136.435L215.488 136.573C215.314 137.048 215.165 137.533 215.043 138.024L215.024 138.013ZM234.158 135.774C233.943 135.774 233.721 135.743 233.502 135.713C233.202 135.67 232.903 135.62 232.607 135.563L232.684 135.179C232.968 135.233 233.264 135.283 233.556 135.325C233.763 135.352 233.974 135.371 234.178 135.382L234.158 135.774ZM235.737 135.655L235.656 135.271C236.138 135.172 236.6 134.992 237.023 134.741L237.223 135.068C236.771 135.347 236.275 135.55 235.756 135.667L235.737 135.655ZM216.13 135.198L215.788 135.018C216.032 134.56 216.303 134.116 216.598 133.689L216.913 133.908C216.632 134.326 216.377 134.761 216.149 135.21L216.13 135.198ZM231.106 135.175C230.61 135.018 230.123 134.834 229.646 134.626L229.804 134.273C230.265 134.478 230.739 134.656 231.221 134.806L231.106 135.175ZM238.402 133.977L238.083 133.762C238.356 133.365 238.518 132.902 238.551 132.422L238.935 132.449C238.903 133 238.722 133.531 238.413 133.988L238.402 133.977ZM228.264 133.919C227.815 133.658 227.38 133.372 226.962 133.063L227.189 132.756C227.595 133.056 228.018 133.333 228.456 133.585L228.264 133.919ZM217.858 132.721L217.573 132.464C217.921 132.077 218.292 131.712 218.683 131.37L218.937 131.658C218.56 131.995 218.203 132.354 217.869 132.733L217.858 132.721ZM225.764 132.072C225.382 131.72 225.019 131.347 224.677 130.955L224.965 130.701C225.298 131.082 225.65 131.445 226.021 131.788L225.764 132.072ZM238.263 131.032C238.043 130.593 237.739 130.201 237.369 129.88L237.622 129.592C238.03 129.945 238.365 130.374 238.609 130.855L238.263 131.032ZM220.131 130.728L219.912 130.413C220.342 130.12 220.786 129.85 221.245 129.603L221.425 129.941C220.984 130.185 220.556 130.451 220.142 130.74L220.131 130.728ZM223.717 129.73C223.572 129.523 223.429 129.311 223.295 129.092L222.796 129.288L222.65 128.935L223.092 128.758C223.022 128.643 222.953 128.528 222.888 128.413L223.222 128.225C223.299 128.359 223.376 128.493 223.456 128.609C223.671 128.532 223.89 128.459 224.113 128.39L224.224 128.774C224.036 128.831 223.84 128.893 223.664 128.958C223.783 129.146 223.906 129.342 224.048 129.507L223.717 129.73ZM236.132 129.069C235.761 128.884 235.376 128.728 234.98 128.601L234.727 128.52L234.838 128.136L235.099 128.221C235.511 128.352 235.911 128.515 236.297 128.708L236.132 129.069ZM225.695 128.382L225.614 127.998C226.11 127.887 226.624 127.795 227.15 127.722L227.208 128.106C226.701 128.186 226.198 128.282 225.707 128.394L225.695 128.382ZM233.26 128.175C232.78 128.09 232.273 128.025 231.755 127.979L231.785 127.595C232.319 127.641 232.837 127.706 233.321 127.795L233.26 128.175ZM228.709 127.952L228.683 127.568C229.14 127.541 229.597 127.526 230.05 127.526H230.238V127.91H230.053C229.62 127.921 229.166 127.933 228.721 127.964L228.709 127.952ZM222.22 127.034C222.013 126.566 221.836 126.078 221.663 125.583L222.047 125.464C222.208 125.948 222.389 126.424 222.589 126.881L222.22 127.034ZM221.248 124.085C221.133 123.59 221.037 123.075 220.964 122.549L221.348 122.495C221.421 123.002 221.513 123.505 221.625 123.993L221.248 124.085ZM220.818 121.013C220.799 120.668 220.788 120.314 220.788 119.961C220.788 119.796 220.788 119.627 220.788 119.462H221.172C221.172 119.627 221.172 119.788 221.172 119.953C221.172 120.299 221.172 120.648 221.198 120.982L220.818 121.013ZM221.275 117.941L220.891 117.903C220.945 117.396 221.018 116.877 221.106 116.367L221.49 116.432C221.387 116.943 221.314 117.434 221.264 117.949L221.275 117.941ZM221.801 114.942L221.417 114.85C221.54 114.355 221.682 113.855 221.84 113.356L222.224 113.475C222.051 113.978 221.909 114.466 221.79 114.95L221.801 114.942ZM222.723 112.035L222.366 111.897C222.554 111.417 222.75 110.937 222.984 110.472L223.33 110.641C223.099 111.102 222.896 111.571 222.711 112.058L222.723 112.035ZM224.044 109.297L223.71 109.101C223.971 108.66 224.251 108.218 224.543 107.796L224.858 108.015C224.558 108.437 224.286 108.867 224.032 109.305L224.044 109.297ZM225.776 106.797L225.476 106.556C225.799 106.172 226.144 105.764 226.501 105.404L226.778 105.668C226.417 106.029 226.079 106.413 225.764 106.805L225.776 106.797ZM227.865 104.586L227.607 104.301C227.991 103.96 228.375 103.622 228.786 103.295L229.024 103.599C228.613 103.925 228.222 104.259 227.853 104.593L227.865 104.586ZM230.249 102.689L230.03 102.37C230.449 102.082 230.887 101.798 231.332 101.529L231.528 101.855C231.083 102.128 230.668 102.408 230.238 102.696L230.249 102.689ZM232.857 101.103L232.676 100.765C233.129 100.523 233.598 100.292 234.066 100.077L234.228 100.427C233.74 100.646 233.291 100.876 232.845 101.11L232.857 101.103ZM235.633 99.8278L235.491 99.4669C235.975 99.2787 236.462 99.0829 236.946 98.9408L237.069 99.3248C236.581 99.4707 236.098 99.6474 235.621 99.8355L235.633 99.8278Z" fill="#050506"/>
<path d="M238.594 98.8563L238.498 98.4723C238.974 98.3494 239.266 98.2957 239.266 98.2957L239.335 98.6797C239.335 98.6797 239.058 98.7373 238.594 98.8563Z" fill="#050506"/>
<path d="M245.383 96.3757C244.404 93.3421 237.845 94.4326 239.124 98.3994C240.402 102.366 246.362 99.4131 245.383 96.3757Z" fill="#050506"/>
<path d="M235.556 95.1622C235.606 93.8298 237.457 92.8045 240.076 93.2768C242.695 93.7491 245.156 95.5155 245.156 95.5155C245.156 95.5155 242.572 97.0822 239.926 97.3702C237.28 97.6582 235.506 96.4909 235.556 95.1622Z" fill="#E9EBED"/>
<path d="M245.156 95.5079C243.797 95.5079 242.442 95.4695 241.086 95.4272C239.73 95.385 238.371 95.3159 237.016 95.2083C238.375 95.2083 239.734 95.2429 241.09 95.2851C242.445 95.3274 243.805 95.3965 245.156 95.5079Z" fill="#050506"/>
<path d="M238.187 93.9757C238.958 94.3449 239.686 94.7996 240.356 95.3312C239.97 95.15 239.595 94.9448 239.235 94.7168C238.871 94.4904 238.521 94.2429 238.187 93.9757Z" fill="#050506"/>
<path d="M241.746 95.3811C241.052 95.9441 240.299 96.4308 239.5 96.8327C240.198 96.269 240.955 95.7823 241.758 95.3811H241.746Z" fill="#050506"/>
<path d="M242.142 94.6323C242.53 94.8184 242.869 95.0918 243.133 95.431C242.939 95.3396 242.757 95.2248 242.591 95.0893C242.425 94.9546 242.274 94.8013 242.142 94.6323Z" fill="#050506"/>
<path d="M238.052 103.053C238.87 104.106 240.971 103.852 242.818 101.94C244.665 100.028 245.644 97.1514 245.644 97.1514C245.644 97.1514 242.618 97.3818 240.31 98.6874C238.002 99.993 237.23 101.997 238.052 103.053Z" fill="#E9EBED"/>
<path d="M245.644 97.1514C244.538 97.9194 243.463 98.7718 242.384 99.5974C241.305 100.423 240.249 101.276 239.216 102.155C240.322 101.387 241.397 100.538 242.472 99.7126C243.547 98.887 244.596 98.0346 245.644 97.1514Z" fill="#050506"/>
<path d="M240.875 102.458C241.08 102.085 241.263 101.701 241.424 101.306C241.587 100.911 241.726 100.506 241.838 100.093C241.632 100.465 241.449 100.85 241.289 101.245C241.127 101.641 240.989 102.046 240.875 102.458Z" fill="#050506"/>
<path d="M242.956 99.248C242.058 99.2 241.156 99.2476 240.268 99.3901C240.716 99.417 241.164 99.417 241.612 99.3901C242.062 99.3681 242.511 99.3207 242.956 99.248Z" fill="#050506"/>
<path d="M243.697 99.6282C243.8 99.4385 243.88 99.2375 243.935 99.0291C243.992 98.8223 244.026 98.6098 244.035 98.3955C243.831 98.7757 243.716 99.1971 243.697 99.6282Z" fill="#050506"/>
<path d="M245.383 96.3757C245.166 96.4461 244.933 96.4506 244.714 96.3885C244.494 96.3265 244.298 96.2008 244.15 96.0272C244.002 95.8537 243.909 95.6402 243.883 95.4137C243.856 95.1872 243.898 94.958 244.002 94.755C244.105 94.5521 244.267 94.3845 244.466 94.2736C244.666 94.1626 244.893 94.1133 245.121 94.1318C245.348 94.1503 245.564 94.2359 245.743 94.3776C245.922 94.5193 246.054 94.7109 246.124 94.928C246.217 95.2183 246.191 95.5336 246.052 95.8049C245.914 96.0763 245.673 96.2815 245.383 96.3757Z" fill="#49535A"/>
<path d="M246.09 98.5683C245.873 98.6385 245.64 98.6428 245.421 98.5807C245.202 98.5186 245.006 98.3929 244.858 98.2196C244.71 98.0462 244.617 97.8329 244.591 97.6066C244.564 97.3804 244.605 97.1513 244.709 96.9484C244.813 96.7455 244.974 96.5779 245.173 96.4667C245.372 96.3556 245.599 96.3059 245.826 96.3239C246.053 96.3419 246.27 96.4269 246.449 96.568C246.628 96.7091 246.761 96.9001 246.831 97.1168C246.878 97.2608 246.895 97.4125 246.883 97.5634C246.871 97.7143 246.83 97.8613 246.761 97.9961C246.692 98.1309 246.597 98.2509 246.482 98.349C246.367 98.4472 246.234 98.5217 246.09 98.5683Z" fill="#49535A"/>
</svg>
